<svg xmlns="http://www.w3.org/2000/svg" xmlns:xlink="http://www.w3.org/1999/xlink" viewBox="0 0 600 155" version="1.1" width="500px" height="130px">
    <!-- Generator: Sketch 52.6 (67491) - http://www.bohemiancoding.com/sketch -->
    <title>colgate</title>
    <desc>Created with Sketch.</desc>
    <g id="colgate" stroke="none" stroke-width="1" fill="none" fill-rule="evenodd" fill-color-id="-1" stroke-color-id="-1" recolor-fill="true" recolor-stroke="true">
        <g id="colgate-vector-logo" fill-color-id="-1" stroke-color-id="-1" recolor-fill="true" recolor-stroke="true">
            <polygon id="Path" fill="#EE122AFF" points="0 0.2 0 154.8 539.4 154.8 600 0.2" fill-color-id="1" stroke-color-id="-1" recolor-fill="true" recolor-stroke="true"/>
            <g id="Group" transform="translate(35.000000, 21.000000)" fill-color-id="-1" stroke-color-id="-1" recolor-fill="true" recolor-stroke="true">
                <path d="M159.4,40.5 C154,33.6 143.5,29.7 130.6,29.6 C109.9,29.5 85.4,41.6 80.8,64.2 C79.2,72.1 80.3,78.7 84.3,83.6 C91.3,92.3 104.9,93.5 110.4,93.6 C140.7,94.1 158.5,76.1 162.7,58 C164.3,51.3 163.1,45.3 159.4,40.5 M138.9,54.7 C133.7,79.6 118.9,80.8 116,80.8 C111.4,80.8 108.1,79.7 106.3,77.5 C104.3,75.1 103.8,71.3 104.9,66.3 C106.9,56.7 115.3,42.4 130.1,42.5 C133.5,42.5 135.9,43.4 137.5,45.2 C139.2,47.2 139.7,50.6 138.9,54.7" id="Shape" fill="#A0181FFF" fill-color-id="0" stroke-color-id="-1" recolor-fill="true" recolor-stroke="true"/>
                <polygon id="Path" fill="#A0181FFF" points="191.1 9.3 158.5 92.4 182.1 92.5 214.7 9.4" fill-color-id="0" stroke-color-id="-1" recolor-fill="true" recolor-stroke="true"/>
                <path d="M335.1,30 C322,29.9 314.7,31.1 307.6,32.2 L305.4,32.5 L298.8,49.4 L301.4,48.6 C307.7,46.7 318.2,44.5 332.6,44.6 C340,44.7 342.7,46.3 343.6,47.6 C344.4,48.6 344.2,49.8 343.9,51 C340.7,50.8 336.9,50.6 332.4,50.5 C328.6,50.5 324.4,50.6 320,50.9 C313.5,51.4 306.6,52.2 299.7,54.9 C290,58.7 284.5,65.6 283.8,74.9 C283.4,79.6 284.8,83.9 287.9,87.2 C292,91.7 299,94.1 308.1,94.2 C315.2,94.2 322.3,92.8 327.3,91.2 L327.5,93.1 L356.1,93.2 L355.7,91.6 C355,88.6 354.3,85.5 357.7,77 L365.9,56 C368.4,49.6 368.1,44.2 365.2,40 C360.8,33.5 350.4,30 335.1,30 M334.6,75.5 C330.4,77.5 324.4,78.9 318.6,79.1 C318.1,79.1 317.6,79.1 317.1,79.1 C311.9,79.1 309.6,77.8 308.6,76.6 C307.8,75.6 307.4,74.4 307.7,72.9 C308.4,68.9 311.3,65.9 322.6,64.8 C325.8,64.5 328.9,64.3 332.9,64.3 C334.7,64.3 336.8,64.4 338.9,64.5 C337.9,67.1 335,74.6 334.6,75.5" id="Shape" fill="#A0181FFF" fill-color-id="0" stroke-color-id="-1" recolor-fill="true" recolor-stroke="true"/>
                <path d="M268.1,31.6 C268.1,31.6 267.4,33.5 267,34.5 C261.8,30.8 254.4,30.2 251.3,30.2 C227.1,30.1 204.7,47.8 201.5,69.6 C200.5,76.2 202.2,82.3 206.3,86.8 C210,90.9 215.6,93 223.6,93.4 C224.5,93.5 225.4,93.5 226.3,93.5 C234.3,93.6 241.3,91.9 247.9,88.6 C238.7,101.4 222.7,102.5 217.3,102.5 C217.2,102.5 217.1,102.5 217.1,102.5 C211.6,102.4 205.3,102.2 200.5,99.9 L199.2,99.3 L192.8,114.4 L194.3,114.8 C199.5,116.2 207.3,117.2 213.8,117.2 C243.5,117.3 262.7,106.8 270.8,85.7 L291.6,31.6 L268.1,31.6 Z M233.8,79.8 C230.4,79.8 227.9,78.7 226.7,76.7 C224.3,72.8 226,65.9 228.4,60.7 C233.9,48.9 244.8,44.4 250.7,44.2 C251.2,44.2 251.6,44.2 252.1,44.2 C256.6,44.2 259.6,45.3 262.2,47.4 C253.9,77.4 238.4,79.8 233.8,79.8 Z" id="Shape" fill="#A0181FFF" fill-color-id="0" stroke-color-id="-1" recolor-fill="true" recolor-stroke="true"/>
                <path d="M54.9,76.9 C46.4,76.8 39.9,74.4 36.2,69.9 C33,66.1 31.8,60.7 32.9,54.9 C36.3,36.4 54.6,22.6 75.4,22.7 C81.6,22.7 87.5,23.9 93,26.2 L94.2,26.7 L101.8,12 L100.5,11.4 C95,8.8 87.1,7.3 79.9,7.2 C43.8,7 11.7,27.7 7,54.3 C5.3,63.7 7.3,72.2 12.8,78.7 C20,87.4 33,92.4 48.4,92.4 C54.5,92.4 62,91.5 68.9,90 L69.5,89.9 L78,71.1 L74.7,72.6 C70.7,74.4 61.7,76.9 54.9,76.9" id="Path" fill="#A0181FFF" fill-color-id="0" stroke-color-id="-1" recolor-fill="true" recolor-stroke="true"/>
                <path d="M397.5,79.2 C395,79.3 394.2,78.7 393.8,78.1 C393.3,77.5 392.6,75.5 394.9,69.5 C394.9,69.5 405.5,43.7 405.9,42.8 C407.5,42.8 420.4,42.9 420.4,42.9 L425.2,30.6 L410.7,30.5 L417.5,12.9 L392.3,17.1 L371.4,69.5 C368.2,77.3 368.1,83 371,87.1 C373.9,91.1 379.4,93 387.9,93.1 C392.3,93.1 398.5,92.3 403.6,91 L404.3,90.8 L410.5,75.9 L407.5,77.1 C405.1,78 400.9,79.1 397.5,79.2" id="Path" fill="#A0181FFF" fill-color-id="0" stroke-color-id="-1" recolor-fill="true" recolor-stroke="true"/>
                <path d="M485.9,39.1 C481.5,33.2 473.8,30.3 463.3,30.2 C440.2,30.1 420.4,43 415.2,61.5 C412.5,71 413.9,79.4 419.1,85.8 C424.8,92.7 434.7,96.6 447.1,96.6 C454.3,96.6 462.7,95.4 470.2,93.2 L470.8,93 L479,76.2 L475.5,77.9 C469.9,80.6 460,82 453.6,82 C448.2,82 443.8,80.2 441.2,77 C439.1,74.4 438.6,70.8 439.4,67 C441.6,67 486.7,67.2 486.7,67.2 L487.3,65.7 C491.2,54.9 490.7,45.4 485.9,39.1 M467.3,54.1 C465.4,54.1 447,54 443.5,54 C445.9,48.6 451.3,43.3 460.4,43.3 C463.7,43.3 466,44.1 467.2,45.6 C468.5,47.4 468.4,50.4 467.3,54.1" id="Shape" fill="#A0181FFF" fill-color-id="0" stroke-color-id="-1" recolor-fill="true" recolor-stroke="true"/>
                <path d="M128.5,28.7 C107.5,28.6 84.4,41 80,62.2 C75.4,84.8 95.5,89.7 108.4,90 C137.5,90.5 155.2,73.1 159.3,55.5 C163.4,38.4 148.4,28.8 128.5,28.7 M138.2,52.7 C132.8,78.6 117.1,79.9 114,79.8 C109,79.8 105.4,78.5 103.3,76 C101,73.3 100.4,69.1 101.6,63.6 C103.7,53.6 112.5,38.7 128.1,38.7 C131.9,38.7 134.7,39.8 136.5,41.9 C138.5,44.4 139.1,48.2 138.2,52.7" id="Shape" fill="#EE122AFF" fill-color-id="1" stroke-color-id="-1" recolor-fill="true" recolor-stroke="true"/>
                <polygon id="Path" fill="#EE122AFF" points="190 8.4 158.5 88.8 179.2 88.9 210.7 8.5" fill-color-id="1" stroke-color-id="-1" recolor-fill="true" recolor-stroke="true"/>
                <path d="M333.6,74.3 C329,76.6 322.6,78 316.6,78.2 C306.3,78.6 303.6,74.7 304.4,70.4 C305.3,65.1 309.4,62.3 320.4,61.2 C325.9,60.7 331.1,60.5 338.7,61 L333.6,74.3 Z M333,29 C319.1,28.9 311.9,30.2 304.3,31.4 L300.1,43.2 C308.7,41.3 316.1,40.3 328.4,40.5 C343,40.7 344.1,44.3 343,50.2 C337.9,49.8 328.6,49.3 318.1,50.1 C311.3,50.6 304.8,51.4 298.2,54 C288.2,57.9 283.8,64.8 283.1,72.8 C282.4,81.9 288.7,90.4 306.1,90.6 C313.6,90.7 322.2,88.7 327.1,87 L327.3,89.5 L352.4,89.6 C351.7,86.5 351,83 354.4,74.2 C356.9,67.9 359.8,60.3 362.6,53.2 C369,36.6 355.4,29.1 333,29 Z" id="Shape" fill="#EE122AFF" fill-color-id="1" stroke-color-id="-1" recolor-fill="true" recolor-stroke="true"/>
                <path d="M267,30.6 L265.7,34.2 C261.5,30.4 254.5,29.3 249.3,29.2 C224.4,29.1 203.8,47.3 200.8,67.5 C199.8,73.9 201.6,79.6 205.3,83.6 C209.1,87.8 214.8,89.4 221.7,89.8 C231.8,90.3 241,88.3 249.9,82.6 C242.7,97.2 227,101.7 215.1,101.6 C209.3,101.5 203,101.3 198,98.9 L192.7,111.2 C197.9,112.6 205.7,113.6 211.9,113.6 C241,113.7 259.8,103.4 267.7,83 L287.8,30.8 L267,30.6 Z M231.8,78.9 C219.7,78.8 220.8,67.1 225.1,57.9 C230.6,46.2 241.7,40.8 248.6,40.6 C253.8,40.4 258.2,41.2 261.6,44.6 C253.3,76.5 236.7,78.9 231.8,78.9 Z" id="Shape" fill="#EE122AFF" fill-color-id="1" stroke-color-id="-1" recolor-fill="true" recolor-stroke="true"/>
                <path d="M29.6,52.4 C33.1,33.4 51.6,19 73.4,19.1 C80.1,19.1 86.2,20.4 91.5,22.7 L97.9,10.3 C92.6,7.8 84.9,6.3 77.8,6.3 C43,6.1 11,25.8 6.2,52.3 C2,75.6 21.4,88.8 46.2,88.9 C52.8,88.9 60.2,87.9 66.4,86.5 L73.1,71.6 C69.3,73.4 60.1,76.1 52.9,76 C33.4,75.8 27.4,64 29.6,52.4" id="Path" fill="#EE122AFF" fill-color-id="1" stroke-color-id="-1" recolor-fill="true" recolor-stroke="true"/>
                <path d="M390.6,76.6 C389.3,74.9 389.7,71.4 391.6,66.7 C391.6,66.7 401.3,43.2 403,39.1 L417.5,39.2 L421.3,29.6 L406.8,29.5 L413.4,12.2 L391.3,15.9 L386.1,29.4 L376.4,29.3 L372.8,38.9 L382.5,39 L370.7,67.6 C367.7,74.9 367.5,80.2 370.2,83.9 C372.8,87.5 377.9,89.3 385.9,89.3 C390.4,89.3 396.5,88.4 401.3,87.2 L406,76 C403.4,77.1 399,78.2 395.5,78.3 C393,78.4 391.6,77.8 390.6,76.6" id="Path" fill="#EE122AFF" fill-color-id="1" stroke-color-id="-1" recolor-fill="true" recolor-stroke="true"/>
                <path d="M482.8,37.6 C478.6,32.1 471.4,29.3 461.2,29.3 C438.7,29.2 419.5,41.7 414.4,59.6 C411.8,68.7 413.1,76.6 418,82.6 C423.5,89.2 433,92.9 445,93 C451.9,93 460.2,91.8 467.7,89.6 L474,76.9 C468.2,79.7 458.1,81.2 451.5,81.1 C445.7,81.1 440.9,79.1 438.1,75.6 C435.5,72.4 434.9,68 436.2,63.4 L483.8,63.6 L484,63 C487.7,52.6 487.3,43.6 482.8,37.6 M466.4,53.2 L439.4,53.1 C441.5,46.7 447.6,39.7 458.4,39.8 C462.1,39.8 464.8,40.8 466.2,42.7 C467.9,44.9 468,48.6 466.4,53.2" id="Shape" fill="#EE122AFF" fill-color-id="1" stroke-color-id="-1" recolor-fill="true" recolor-stroke="true"/>
                <polygon id="Path" fill="#EE122AFF" points="152.5 86.8 176.8 86.9 209.7 3.2 185.4 3.1" fill-color-id="1" stroke-color-id="-1" recolor-fill="true" recolor-stroke="true"/>
                <path d="M262.3,25.3 L261.4,27.9 C256.1,24.4 248.9,24 245.8,24 C221.4,23.9 199,41.7 195.7,63.7 C194.7,70.4 196.4,76.6 200.6,81.2 C204.3,85.3 210.1,87.5 218.1,87.9 C226.7,88.3 234.4,86.9 241.5,83.6 C232.1,95.5 216.6,96.4 211.6,96.3 C206.1,96.2 199.9,96 195.2,93.7 L193.6,92.9 L186.9,108.6 L188.7,109.1 C193.9,110.5 201.8,111.5 208.3,111.6 C238.2,111.7 257.4,101.1 265.6,79.9 L286.6,25.4 L262.3,25.3 Z M228.3,73.5 C225,73.5 222.7,72.5 221.4,70.5 C219,66.7 220.7,59.9 223.1,54.8 C228.6,43.2 239.3,38.6 245.2,38.5 C250.3,38.3 253.7,39.2 256.3,41.4 C248.2,71.3 232.8,73.6 228.3,73.5 Z" id="Shape" fill="#EE122AFF" fill-color-id="1" stroke-color-id="-1" recolor-fill="true" recolor-stroke="true"/>
                <path d="M154.1,34.3 C148.6,27.4 138,23.4 125,23.3 C104.2,23.2 79.6,35.4 74.9,58.1 C73.3,66.1 74.4,72.8 78.5,77.8 C85.6,86.6 99.3,87.8 104.9,87.9 C135.3,88.4 153.2,70.3 157.5,52.1 C159.1,45.4 158,39.2 154.1,34.3 M133.1,48.7 C128,73.3 113.4,74.5 110.5,74.5 C106,74.5 102.8,73.4 101.1,71.3 C99.2,69 98.7,65.3 99.8,60.3 C101.8,50.8 110,36.7 124.7,36.8 C128,36.8 130.3,37.7 131.8,39.4 C133.4,41.5 133.9,44.8 133.1,48.7" id="Shape" fill="#EE122AFF" fill-color-id="1" stroke-color-id="-1" recolor-fill="true" recolor-stroke="true"/>
                <path d="M49.5,70.6 C41,70.6 34.7,68.2 31,63.8 C27.9,60 26.7,54.8 27.8,49.1 C31.2,30.8 49.3,17 69.9,17.2 C76.1,17.2 82,18.4 87.4,20.6 L88.8,21.2 L96.7,5.9 L95.1,5.2 C89.5,2.6 81.7,1 74.4,1 C38.1,0.8 6,21.6 1.2,48.4 C-0.5,57.9 1.5,66.5 7,73.1 C14.3,81.8 27.3,86.9 42.8,86.9 C49,86.9 56.5,86 63.3,84.5 L64.1,84.3 L73,64.5 L68.9,66.4 C65.1,68.1 56.2,70.7 49.5,70.6" id="Path" fill="#EE122AFF" fill-color-id="1" stroke-color-id="-1" recolor-fill="true" recolor-stroke="true"/>
                <path d="M405.7,24.2 L412.5,6.5 L386.6,10.8 L381.4,24.1 L371.7,24 L366.9,37 L376.5,37 L365.7,63.4 C362.5,71.3 362.3,77.1 365.4,81.3 C368.3,85.4 373.9,87.4 382.5,87.4 C386.9,87.4 393.1,86.6 398.3,85.3 L399.1,85.1 L405.6,69.3 C405.6,69.3 402,70.8 402,70.8 C399.6,71.8 395.5,72.9 392.1,73 C389.8,73.1 389.1,72.5 388.7,72 C388.4,71.6 387.5,69.7 389.9,63.8 C390,63.5 400.8,37.3 400.8,37.3 L415.3,37.4 L420.4,24.4 L405.7,24.2 Z" id="Path" fill="#EE122AFF" fill-color-id="1" stroke-color-id="-1" recolor-fill="true" recolor-stroke="true"/>
                <path d="M480.6,33 C476.1,27.1 468.4,24 457.7,24 C434.5,23.9 414.5,36.9 409.3,55.5 C406.6,65.1 408,73.6 413.3,80.1 C419,87.1 429.1,91 441.5,91.1 C448.7,91.1 457.2,89.9 464.7,87.6 L465.4,87.4 L473.9,69.9 L469.8,71.7 C464.2,74.4 454.4,75.8 448,75.8 C442.7,75.8 438.4,74 435.9,70.9 C433.9,68.4 433.3,65.1 434,61.4 L481.3,61.6 L482,59.9 C486,49 485.5,39.4 480.6,33 M461.7,47.9 L438.4,47.8 C440.9,42.6 446.2,37.8 454.9,37.8 C458.1,37.8 460.3,38.6 461.4,40 C462.6,41.6 462.7,44.4 461.7,47.9" id="Shape" fill="#EE122AFF" fill-color-id="1" stroke-color-id="-1" recolor-fill="true" recolor-stroke="true"/>
                <path d="M359.9,33.8 C355.4,27.2 344.9,23.8 329.5,23.7 C316.3,23.6 309,24.8 301.9,25.9 L299.6,26.3 L292.7,44 L296,43 C302.2,41.1 312.7,38.9 327,39 C334.2,39.1 336.8,40.6 337.8,41.9 C338.3,42.6 338.4,43.4 338.3,44.2 L337.9,44.2 C332.6,43.8 324.1,43.5 314.7,44.2 C307.9,44.7 301.4,45.5 294.8,48.1 C292.4,49 290.4,50.1 288.6,51.4 C288.6,51.4 286.6,52.9 285.9,53.7 C285.9,53.7 285.9,53.7 285.9,53.7 C283.1,56.1 281.1,59.1 279.7,62.6 L279.5,63.1 C278.8,64.9 278,67 277.8,69.1 C277.4,74 278.9,78.3 281.9,81.7 C286.1,86.3 293.2,88.7 302.4,88.7 C310.9,88.7 319.6,86.6 324.5,84.8 C324.4,85.1 324.6,87.9 324.6,87.9 L325.3,87.7 L326.9,87.1 L326.9,87.7 L350.7,87.8 L350.3,85.8 C349.6,82.9 349,79.8 352.3,71.4 L354.4,65.9 L360.4,50.3 C363.1,43.7 362.9,38.2 359.9,33.8 Z M328.8,69.4 C324.6,71.3 318.7,72.7 313,72.9 C306.9,73.1 304.4,71.7 303.3,70.6 C302.5,69.7 302.3,68.5 302.5,67.1 C303.2,63.2 305.9,60.4 317,59.3 C321.5,58.9 326,58.6 332.7,59 L328.8,69.4 Z" id="Shape" fill="#EE122AFF" fill-color-id="1" stroke-color-id="-1" recolor-fill="true" recolor-stroke="true"/>
                <polygon id="Path" fill="#FFFFFF" points="186.6 4.8 155 85.1 175.7 85.2 207.3 4.9" fill-color-id="2" stroke-color-id="-1" recolor-fill="true" recolor-stroke="true"/>
                <path d="M125.1,25 C104.1,24.9 81,37.3 76.6,58.5 C72,81.1 92.1,86 105,86.3 C134,86.8 151.8,69.5 155.9,51.8 C159.9,34.7 144.9,25.1 125.1,25 M110.5,76.2 C105.5,76.2 101.9,74.9 99.8,72.4 C97.5,69.7 97,65.5 98.1,60 C100.2,50 109,35.1 124.6,35.1 C128.4,35.1 131.2,36.2 133,38.3 C135.1,40.7 135.7,44.5 134.7,49 C129.3,74.9 113.6,76.2 110.5,76.2" id="Shape" fill="#FFFFFF" fill-color-id="2" stroke-color-id="-1" recolor-fill="true" recolor-stroke="true"/>
                <path d="M300.8,27.8 C308.4,26.6 315.6,25.4 329.5,25.4 C351.8,25.5 365.5,33 359,49.6 C356.2,56.8 353.3,64.3 350.8,70.6 C347.3,79.5 348.1,82.9 348.8,86 L327,85.9 C326.9,84.8 326.9,83.3 327.1,81.8 C324.1,83.6 313.2,87 302.6,87 C285.3,86.9 278.9,78.3 279.7,69.2 C280.3,61.2 284.8,54.3 294.8,50.4 C301.4,47.8 307.9,47 314.7,46.5 C325.2,45.7 334.5,46.2 339.6,46.6 C340.5,43.6 341.9,37.5 327.1,37.4 C311.3,37.2 300.6,39.9 295.6,41.4 L300.8,27.8 Z M317,57.6 C306,58.7 301.9,61.5 301,66.8 C300.2,71 302.9,75 313.2,74.6 C319.2,74.4 325.7,73 330.2,70.7 L335.4,57.5 C327.7,56.9 322.5,57.1 317,57.6 Z" id="Shape" fill="#FFFFFF" fill-color-id="2" stroke-color-id="-1" recolor-fill="true" recolor-stroke="true"/>
                <path d="M263.5,27 L262.2,30.6 C258,26.8 251,25.7 245.8,25.6 C220.9,25.5 200.4,43.7 197.3,63.9 C196.3,70.3 198.1,76 201.8,80 C205.6,84.2 211.3,85.8 218.1,86.2 C228.2,86.7 237.4,84.7 246.3,79 C239.1,93.6 223.4,98.1 211.5,98 C205.7,97.9 199.4,97.7 194.4,95.2 L189.2,107.6 C194.4,109 202.1,110 208.4,110 C237.5,110.1 256.3,99.8 264.2,79.4 L284.3,27.2 L263.5,27 Z M228.3,75.2 C216.2,75.1 217.3,63.4 221.6,54.2 C227.1,42.5 238.2,37.1 245.2,36.9 C250.4,36.7 254.8,37.5 258.2,40.9 C249.9,72.8 233.2,75.2 228.3,75.2 Z" id="Shape" fill="#FFFFFF" fill-color-id="2" stroke-color-id="-1" recolor-fill="true" recolor-stroke="true"/>
                <path d="M69.7,67.8 C65.9,69.6 56.7,72.3 49.5,72.2 C29.9,72.1 24,60.2 26.1,48.7 C29.6,29.7 48.1,15.3 69.9,15.4 C76.6,15.4 82.7,16.7 88,19 L94.4,6.6 C89,4.1 81.4,2.6 74.3,2.5 C39.5,2.3 7.5,22 2.7,48.5 C-1.5,71.8 17.9,85 42.7,85.1 C49.4,85.1 56.7,84.1 62.9,82.7 L69.7,67.8 Z" id="Path" fill="#FFFFFF" fill-color-id="2" stroke-color-id="-1" recolor-fill="true" recolor-stroke="true"/>
                <path d="M403.6,26.2 L410.2,8.9 L388.1,12.6 L382.9,26.1 L373.2,26 L369.6,35.6 L379.3,35.6 L367.6,64.3 C364.6,71.6 364.4,76.9 367,80.6 C369.6,84.2 374.7,86 382.8,86 C387.3,86 393.4,85.1 398.2,83.9 L402.9,72.6 C400.2,73.7 395.9,74.8 392.4,74.9 C389.9,75 388.5,74.4 387.6,73.2 C386.3,71.5 386.7,68 388.6,63.3 C388.6,63.3 398.3,39.8 400,35.7 L414.5,35.8 L418.3,26.2 L403.6,26.2 Z" id="Path" fill="#FFFFFF" fill-color-id="2" stroke-color-id="-1" recolor-fill="true" recolor-stroke="true"/>
                <path d="M470.5,73.2 C464.7,76 454.7,77.5 448,77.4 C442.2,77.4 437.4,75.4 434.6,71.9 C432,68.7 431.4,64.3 432.7,59.7 L480.2,59.9 L480.4,59.3 C484.2,49 483.7,40 479.2,34 C475,28.5 467.8,25.7 457.6,25.7 C435.1,25.6 415.9,38.1 410.8,56 C408.3,65.1 409.5,73 414.5,79 C419.9,85.7 429.5,89.3 441.5,89.4 C448.4,89.4 456.7,88.2 464.2,86 L470.5,73.2 Z M454.9,36.1 C458.7,36.1 461.3,37.1 462.7,39 C464.4,41.3 464.5,44.9 462.9,49.6 L435.9,49.5 C437.9,43 444,36.1 454.9,36.1 Z" id="Shape" fill="#FFFFFF" fill-color-id="2" stroke-color-id="-1" recolor-fill="true" recolor-stroke="true"/>
                <path d="M503.1,24.5 C503.1,25.9 502.6,27.1 501.6,28 C500.6,29 499.4,29.4 498.1,29.4 C496.7,29.4 495.5,28.9 494.6,28 C493.6,27 493.1,25.8 493.1,24.5 C493.1,23.1 493.6,21.9 494.6,20.9 C495.6,19.9 496.8,19.4 498.1,19.4 C499.5,19.4 500.7,19.9 501.6,20.9 C502.6,22 503.1,23.1 503.1,24.5 Z M501.9,24.5 C501.9,23.5 501.5,22.5 500.8,21.7 C500,20.9 499.2,20.5 498.1,20.5 C497,20.5 496.1,20.9 495.4,21.7 C494.7,22.5 494.3,23.4 494.3,24.5 C494.3,25.5 494.7,26.5 495.4,27.3 C496.1,28.1 497,28.5 498.1,28.5 C499.1,28.5 500,28.1 500.8,27.3 C501.6,26.5 501.9,25.6 501.9,24.5 Z M498.7,27.1 L498.7,26.2 C498.7,25.8 498.6,25.5 498.5,25.2 C498.4,24.9 498.2,24.8 497.9,24.8 L497.5,24.8 L497.5,27.1 L496.9,27.1 L496.2,27.1 L496.2,21.8 L498.3,21.8 C498.9,21.8 499.3,21.9 499.6,22.1 C499.9,22.3 500,22.6 500,22.9 L500,23.1 L500,23.3 C500,23.6 499.9,23.8 499.8,24 C499.6,24.2 499.4,24.3 499.2,24.4 C499.6,24.6 499.8,24.9 500,25.2 C500.2,25.5 500.2,25.9 500.2,26.2 L500.2,27.1 L498.7,27.1 Z M498.9,23.5 L498.9,23.4 L498.9,23.3 C498.9,23.1 498.8,23 498.8,22.9 C498.7,22.8 498.6,22.7 498.4,22.7 L498,22.7 L497.6,22.7 L497.6,24.1 L498.4,24.1 C498.6,24.1 498.7,24 498.8,24 C498.8,23.8 498.9,23.7 498.9,23.5 Z" id="Shape" fill="#FFFFFF" fill-color-id="2" stroke-color-id="-1" recolor-fill="true" recolor-stroke="true"/>
            </g>
        </g>
    </g>
</svg>