<svg xmlns="http://www.w3.org/2000/svg" xmlns:xlink="http://www.w3.org/1999/xlink" viewBox="0 0 465 116" version="1.1" width="250px" height="63px">
    <!-- Generator: Sketch 52.6 (67491) - http://www.bohemiancoding.com/sketch -->
    <title>gillette</title>
    <desc>Created with Sketch.</desc>
    <g id="Page-1" stroke="none" stroke-width="1" fill="none" fill-rule="evenodd" fill-color-id="-1" stroke-color-id="-1" recolor-fill="true" recolor-stroke="true">
        <g id="gillette" fill="#182F6EFF" fill-rule="nonzero" fill-color-id="0" stroke-color-id="-1" recolor-fill="true" recolor-stroke="true">
            <path d="M129.005608,36.6281765 C124.264328,36.7126087 119.715998,34.7512366 116.520996,31.2444487 C113.325995,27.7376608 111.793296,23.024583 112.313925,18.3076237 C113.192434,8.19705751 122.106724,0 132.209585,0 C142.312446,0 149.792697,8.19705751 148.901268,18.3076237 C148.022759,28.4181899 139.121389,36.6281765 129.005608,36.6281765 Z M110.259762,41.9937584 L142.118657,41.9937584 L129.948714,111.04815 L98.3223664,111.04815 L110.259762,41.9937584 Z M157.156675,3.03834151 L189.00265,3.03834151 L169.752953,111.04815 L138.126606,111.04815 L157.156675,3.03834151 Z M70.894778,46.4155149 C66.6960186,40.8818547 62.0709236,37.7788676 58.0659531,37.7788676 C53.6475663,37.7788676 40.7670643,38.3477486 37.0592368,59.9135087 C32.6279307,85.5907267 48.5444587,85.3709318 52.0972551,85.3709318 C55.624213,85.3709318 57.8463257,85.3709318 61.3862029,82.7075346 L62.7039674,75.6353099 L49.655515,75.6353099 L53.634647,52.6214891 L100.079386,52.6214891 L91.4622395,100.860009 C71.5536603,111.927329 60.0555191,113.246099 48.5444587,113.246099 C2.75860223,113.246099 -3.21009577,77.3936692 1.20829106,52.60856 C5.62667789,27.8234507 29.5143891,7.89968792 57.1745242,7.89968792 C86.811306,7.89968792 97.8701923,22.9491752 102.288579,34.2362907 L70.894778,46.4155149 Z M464.05369,81.4016942 L415.929448,81.3758359 C416.484976,88.9264378 420.438269,93.9041462 424.998768,93.9041462 C428.202744,93.9041462 432.078522,92.6629514 434.287716,87.568881 L460.307105,92.5078021 C452.801015,107.466786 437.155791,115.987071 420.735412,115.987071 C395.387825,115.987071 378.734899,92.5078021 386.421858,68.5760143 L379.445458,68.550156 L371.926449,111.04815 L340.067554,111.04815 L347.599483,68.550156 L335.209913,68.550156 L327.690904,111.04815 L295.844928,111.04815 L303.583565,68.550156 L294.979338,68.550156 C295.250642,72.2478823 294.901822,77.7686135 294.191263,81.4146233 L246.067021,81.3758359 C246.60963,88.9264378 250.575842,93.9170753 255.136341,93.9170753 C258.340317,93.9170753 262.216095,92.6758805 264.425289,87.5818101 L290.444678,92.5207312 C282.938588,107.479715 267.306284,116 250.872985,116 C230.71894,116 214.892847,100.420419 214.892847,81.6214891 L209.583031,111.04815 L177.956683,111.04815 L196.973834,3.03834151 L228.819809,3.03834151 L217.592972,65.6928221 C224.039683,49.8675881 240.214596,38.3606777 257.642677,38.3606777 C274.709019,38.3606777 289.940827,45.4329024 294.023313,62.3053946 L297.601948,41.9937584 L308.001952,41.9937584 L313.531395,11.4551939 L345.37737,11.4551939 L339.847927,41.9937584 L352.224578,41.9937584 L357.754021,11.4551939 L389.599996,11.4551939 L384.29018,41.9937584 L394.909812,41.9937584 L392.132171,57.1725368 C400.103354,45.9112795 413.397273,38.3736068 427.492185,38.3736068 C457.762011,38.3606777 468.446238,58.7369594 464.05369,81.4016942 Z M248.224537,68.5242978 L266.621563,68.5113687 C267.319203,60.2108783 263.094605,58.5818101 258.236963,58.6723139 C254.567894,58.7369594 250.6146,62.7967008 248.224537,68.5242978 Z M418.061125,68.6018725 L436.471071,68.6277307 C437.168711,60.3143112 432.969951,58.5947392 428.112309,58.6723139 C424.417401,58.7369594 420.438269,62.8354882 418.061125,68.6018725 Z" id="Shape" fill-color-id="0" stroke-color-id="-1" recolor-fill="true" recolor-stroke="true" fill="#182F6EFF"/>
        </g>
    </g>
</svg>